<?xml version="1.0"?>
<svg xmlns="http://www.w3.org/2000/svg" xmlns:xlink="http://www.w3.org/1999/xlink" id="Capa_1" style="enable-background:new 0 0 430 430;" viewBox="0 0 430 430" x="0px" y="0px" width="512px" height="512px" xml:space="preserve" version="1.1"><g><path class="active-path" d="M 323.424 128.966 c -4.113 0 -8.213 0.234 -12.277 0.703 c -4.898 -20.225 -15.654 -38.647 -31.178 -53.025 c -19.752 -18.294 -45.463 -28.369 -72.4 -28.369 c -49.559 0 -91.801 33.842 -103.422 80.719 C 46.496 130.286 0 177.587 0 235.542 c 0 58.77 47.811 106.58 106.576 106.58 h 62.537 l 17.182 24.629 c 6.541 9.377 17.272 14.975 28.705 14.975 s 22.164 -5.598 28.706 -14.976 l 17.181 -24.628 h 62.537 c 58.766 0 106.576 -47.81 106.576 -106.58 C 430 176.776 382.19 128.966 323.424 128.966 Z M 277.339 285.248 l -50.036 71.726 c -2.806 4.021 -7.399 6.418 -12.303 6.418 c -4.903 0 -9.497 -2.397 -12.303 -6.418 l -50.036 -71.727 c -3.197 -4.584 -3.581 -10.565 -0.996 -15.52 c 2.585 -4.955 7.71 -8.063 13.299 -8.063 H 186 v -62.143 c 0 -8.284 6.716 -15 15 -15 h 28 c 8.284 0 15 6.716 15 15 v 62.143 h 21.036 c 5.589 0 10.714 3.108 13.299 8.063 C 280.92 274.684 280.536 280.664 277.339 285.248 Z" data-original="#000000" data-old_color="#000000" fill="#F5C506"/></g> </svg>
