<?xml version="1.0"?>
<svg xmlns="http://www.w3.org/2000/svg" xmlns:xlink="http://www.w3.org/1999/xlink" id="Capa_1" style="enable-background:new 0 0 551.391 551.391;" viewBox="0 0 551.391 551.391" x="0px" y="0px" width="512px" height="512px" xml:space="preserve" version="1.1"><g><g>
	<path class="active-path" d="M 413.695 0 c 0 0 -45.366 44.014 -94.43 61.759 C -44.068 193.178 109.165 449.277 114.164 450.121 c 0 0 20.374 -35.48 47.896 -55.717 c 174.644 -128.389 210.14 -276.171 210.14 -276.171 s -39.19 177.829 -194.562 288.479 c -34.316 24.426 -57.552 84.568 -67.388 144.679 c 0 0 24.325 -9.828 34.785 -12.49 c 4.079 -26.618 12.607 -52.106 27.025 -74.875 c 217.151 25.854 288.272 -149.123 297.563 -210.136 C 491.552 109.79 413.695 0 413.695 0 Z" data-original="#000000" data-old_color="#000000" fill="#F5C506"/>
</g></g> </svg>
