<?xml version="1.0"?>
<svg xmlns="http://www.w3.org/2000/svg" xmlns:xlink="http://www.w3.org/1999/xlink" class="hovered-paths" id="Layer_1" style="enable-background:new 0 0 490.55 490.55;" viewBox="0 0 490.55 490.55" x="0px" y="0px" width="512px" height="512px" xml:space="preserve" version="1.1"><g><g>
	<g>
		<path class="hovered-path active-path" d="M 490.482 233.398 c -0.427 -3.733 -2.773 -6.997 -6.187 -8.555 L 14.962 11.51 c -0.363 -0.171 -0.768 -0.171 -1.131 -0.299 c -0.619 -0.192 -1.195 -0.384 -1.835 -0.469 c -0.661 -0.085 -1.301 -0.085 -1.941 -0.064 c -0.555 0.021 -1.067 0.064 -1.621 0.171 c -0.683 0.128 -1.301 0.363 -1.941 0.619 c -0.32 0.128 -0.64 0.149 -0.939 0.299 c -0.213 0.107 -0.363 0.32 -0.576 0.448 c -0.533 0.32 -1.003 0.725 -1.472 1.152 c -0.491 0.448 -0.939 0.896 -1.344 1.429 c -0.149 0.213 -0.384 0.341 -0.533 0.555 c -0.171 0.256 -0.213 0.576 -0.363 0.832 c -0.32 0.597 -0.576 1.195 -0.789 1.835 c -0.171 0.576 -0.32 1.131 -0.384 1.707 c -0.085 0.597 -0.107 1.173 -0.085 1.792 c 0.021 0.661 0.085 1.28 0.235 1.92 c 0.064 0.277 0.021 0.555 0.107 0.811 l 128 426.667 c 0.939 3.136 3.243 5.675 6.293 6.869 c 1.28 0.491 2.603 0.747 3.925 0.747 c 1.877 0 3.733 -0.491 5.397 -1.451 l 107.499 -62.891 l 93.355 82.987 c 0.491 0.448 1.088 0.661 1.643 1.003 c 0.512 0.299 0.939 0.683 1.493 0.917 c 1.259 0.512 2.581 0.789 3.925 0.789 c 1.323 0 2.624 -0.299 3.861 -0.768 c 0.107 -0.043 0.256 -0.064 0.363 -0.107 c 0.277 -0.107 0.469 -0.363 0.725 -0.491 c 0.085 -0.043 0.149 -0.107 0.213 -0.149 c 0.555 -0.32 1.131 -0.512 1.643 -0.939 c 0.128 -0.107 0.192 -0.277 0.32 -0.384 c 0.213 -0.192 0.405 -0.363 0.597 -0.555 c 0.064 -0.085 0.171 -0.107 0.235 -0.171 c 0.235 -0.256 0.299 -0.597 0.512 -0.875 c 0.363 -0.512 0.725 -0.981 1.003 -1.536 c 0.149 -0.299 0.299 -0.576 0.427 -0.896 c 0.149 -0.384 0.213 -0.768 0.32 -1.173 c 0.149 -0.597 0.235 -1.195 0.277 -1.813 c 0.021 -0.299 0.171 -0.533 0.171 -0.811 V 335.884 l 123.733 -92.8 C 489.288 240.822 490.909 237.153 490.482 233.398 Z M 270.813 382.881 l 12.459 -7.296 l 23.616 39.36 L 270.813 382.881 Z M 341.213 430.71 l -43.499 -72.512 c -0.384 -1.493 -1.067 -2.901 -2.048 -4.117 L 108.189 124.107 l 233.024 211.179 V 430.71 Z" data-original="#000000" data-old_color="#000000" fill="#F5C506"/>
	</g>
</g></g> </svg>
